<svg width="41" height="34" viewBox="0 0 41 34" fill="none" xmlns="http://www.w3.org/2000/svg">
<path d="M0 5C0 2.23858 2.23858 0 5 0H36C38.7614 0 41 2.23858 41 5V29C41 31.7614 38.7614 34 36 34H5C2.23858 34 0 31.7614 0 29V5Z" fill="#F27A1A"/>
<path d="M4.58055 7.77H5.66555C5.78221 7.77 5.87721 7.79833 5.95055 7.855C6.02388 7.91167 6.07888 7.985 6.11555 8.075L7.81555 12.485C7.87221 12.6283 7.92555 12.7867 7.97555 12.96C8.02888 13.13 8.07888 13.31 8.12555 13.5C8.20221 13.1167 8.29721 12.7783 8.41055 12.485L10.1055 8.075C10.1355 7.99833 10.1889 7.92833 10.2655 7.865C10.3422 7.80167 10.4372 7.77 10.5505 7.77H11.6355L8.71555 15H7.50055L4.58055 7.77ZM13.8249 9.79C14.1483 9.79 14.4449 9.84167 14.7149 9.945C14.9883 10.0483 15.2233 10.2 15.4199 10.4C15.6166 10.5967 15.7699 10.84 15.8799 11.13C15.9899 11.4167 16.0449 11.745 16.0449 12.115C16.0449 12.2083 16.0399 12.2867 16.0299 12.35C16.0233 12.41 16.0083 12.4583 15.9849 12.495C15.9649 12.5283 15.9366 12.5533 15.8999 12.57C15.8633 12.5833 15.8166 12.59 15.7599 12.59H12.5899C12.6266 13.1167 12.7683 13.5033 13.0149 13.75C13.2616 13.9967 13.5883 14.12 13.9949 14.12C14.1949 14.12 14.3666 14.0967 14.5099 14.05C14.6566 14.0033 14.7833 13.9517 14.8899 13.895C14.9999 13.8383 15.0949 13.7867 15.1749 13.74C15.2583 13.6933 15.3383 13.67 15.4149 13.67C15.4649 13.67 15.5083 13.68 15.5449 13.7C15.5816 13.72 15.6133 13.7483 15.6399 13.785L15.9999 14.235C15.8633 14.395 15.7099 14.53 15.5399 14.64C15.3699 14.7467 15.1916 14.8333 15.0049 14.9C14.8216 14.9633 14.6333 15.0083 14.4399 15.035C14.2499 15.0617 14.0649 15.075 13.8849 15.075C13.5283 15.075 13.1966 15.0167 12.8899 14.9C12.5833 14.78 12.3166 14.605 12.0899 14.375C11.8633 14.1417 11.6849 13.855 11.5549 13.515C11.4249 13.1717 11.3599 12.775 11.3599 12.325C11.3599 11.975 11.4166 11.6467 11.5299 11.34C11.6433 11.03 11.8049 10.7617 12.0149 10.535C12.2283 10.305 12.4866 10.1233 12.7899 9.99C13.0966 9.85667 13.4416 9.79 13.8249 9.79ZM13.8499 10.675C13.4899 10.675 13.2083 10.7767 13.0049 10.98C12.8016 11.1833 12.6716 11.4717 12.6149 11.845H14.9349C14.9349 11.685 14.9133 11.535 14.8699 11.395C14.8266 11.2517 14.7599 11.1267 14.6699 11.02C14.5799 10.9133 14.4666 10.83 14.3299 10.77C14.1933 10.7067 14.0333 10.675 13.8499 10.675ZM17.0467 15V9.87H17.7717C17.8984 9.87 17.9867 9.89333 18.0367 9.94C18.0867 9.98667 18.1201 10.0667 18.1367 10.18L18.2117 10.8C18.3951 10.4833 18.6101 10.2333 18.8567 10.05C19.1034 9.86667 19.3801 9.775 19.6867 9.775C19.9401 9.775 20.1501 9.83333 20.3167 9.95L20.1567 10.875C20.1467 10.935 20.1251 10.9783 20.0917 11.005C20.0584 11.0283 20.0134 11.04 19.9567 11.04C19.9067 11.04 19.8384 11.0283 19.7517 11.005C19.6651 10.9817 19.5501 10.97 19.4067 10.97C19.1501 10.97 18.9301 11.0417 18.7467 11.185C18.5634 11.325 18.4084 11.5317 18.2817 11.805V15H17.0467ZM22.9038 9.78C23.1238 9.78 23.3304 9.80333 23.5238 9.85C23.7171 9.89333 23.8938 9.95833 24.0538 10.045H25.5288V10.505C25.5288 10.5817 25.5088 10.6417 25.4688 10.685C25.4288 10.7283 25.3604 10.7583 25.2638 10.775L24.8038 10.86C24.8371 10.9467 24.8621 11.0383 24.8788 11.135C24.8988 11.2317 24.9088 11.3333 24.9088 11.44C24.9088 11.6933 24.8571 11.9233 24.7538 12.13C24.6538 12.3333 24.5138 12.5067 24.3338 12.65C24.1571 12.7933 23.9454 12.905 23.6988 12.985C23.4554 13.0617 23.1904 13.1 22.9038 13.1C22.7104 13.1 22.5221 13.0817 22.3388 13.045C22.1788 13.1417 22.0988 13.25 22.0988 13.37C22.0988 13.4733 22.1454 13.55 22.2388 13.6C22.3354 13.6467 22.4604 13.68 22.6138 13.7C22.7704 13.72 22.9471 13.7333 23.1438 13.74C23.3404 13.7433 23.5421 13.7533 23.7488 13.77C23.9554 13.7867 24.1571 13.8167 24.3538 13.86C24.5504 13.9 24.7254 13.965 24.8788 14.055C25.0354 14.145 25.1604 14.2683 25.2538 14.425C25.3504 14.5783 25.3988 14.7767 25.3988 15.02C25.3988 15.2467 25.3421 15.4667 25.2288 15.68C25.1188 15.8933 24.9571 16.0833 24.7438 16.25C24.5338 16.4167 24.2754 16.55 23.9688 16.65C23.6621 16.7533 23.3121 16.805 22.9188 16.805C22.5288 16.805 22.1904 16.7667 21.9038 16.69C21.6171 16.6167 21.3788 16.5167 21.1888 16.39C21.0021 16.2667 20.8621 16.1233 20.7688 15.96C20.6754 15.7967 20.6288 15.6267 20.6288 15.45C20.6288 15.21 20.7021 15.0083 20.8488 14.845C20.9954 14.6817 21.1988 14.5517 21.4588 14.455C21.3321 14.385 21.2304 14.2917 21.1538 14.175C21.0771 14.0583 21.0388 13.9067 21.0388 13.72C21.0388 13.6433 21.0521 13.565 21.0788 13.485C21.1054 13.4017 21.1454 13.32 21.1988 13.24C21.2554 13.16 21.3254 13.085 21.4088 13.015C21.4921 12.9417 21.5904 12.8767 21.7038 12.82C21.4438 12.68 21.2388 12.4933 21.0888 12.26C20.9421 12.0267 20.8688 11.7533 20.8688 11.44C20.8688 11.1867 20.9188 10.9583 21.0188 10.755C21.1221 10.5483 21.2638 10.3733 21.4438 10.23C21.6271 10.0833 21.8421 9.97167 22.0888 9.895C22.3388 9.81833 22.6104 9.78 22.9038 9.78ZM24.2588 15.23C24.2588 15.13 24.2288 15.0483 24.1688 14.985C24.1088 14.9217 24.0271 14.8733 23.9238 14.84C23.8204 14.8033 23.6988 14.7767 23.5588 14.76C23.4221 14.7433 23.2754 14.7317 23.1188 14.725C22.9654 14.715 22.8054 14.7067 22.6388 14.7C22.4754 14.69 22.3171 14.675 22.1638 14.655C22.0238 14.7317 21.9104 14.8233 21.8238 14.93C21.7404 15.0333 21.6988 15.1533 21.6988 15.29C21.6988 15.38 21.7204 15.4633 21.7638 15.54C21.8104 15.62 21.8821 15.6883 21.9788 15.745C22.0788 15.8017 22.2071 15.845 22.3638 15.875C22.5204 15.9083 22.7121 15.925 22.9388 15.925C23.1688 15.925 23.3671 15.9067 23.5338 15.87C23.7004 15.8367 23.8371 15.7883 23.9438 15.725C24.0538 15.665 24.1338 15.5917 24.1838 15.505C24.2338 15.4217 24.2588 15.33 24.2588 15.23ZM22.9038 12.31C23.0571 12.31 23.1904 12.29 23.3038 12.25C23.4171 12.2067 23.5104 12.1483 23.5838 12.075C23.6604 12.0017 23.7171 11.9133 23.7538 11.81C23.7938 11.7067 23.8138 11.5933 23.8138 11.47C23.8138 11.2167 23.7371 11.0167 23.5838 10.87C23.4338 10.72 23.2071 10.645 22.9038 10.645C22.6004 10.645 22.3721 10.72 22.2188 10.87C22.0688 11.0167 21.9938 11.2167 21.9938 11.47C21.9938 11.59 22.0121 11.7017 22.0488 11.805C22.0888 11.9083 22.1454 11.9983 22.2188 12.075C22.2954 12.1483 22.3904 12.2067 22.5038 12.25C22.6204 12.29 22.7538 12.31 22.9038 12.31ZM27.6195 9.87V15H26.3845V9.87H27.6195ZM27.8045 8.375C27.8045 8.48167 27.7829 8.58167 27.7395 8.675C27.6962 8.76833 27.6379 8.85 27.5645 8.92C27.4945 8.99 27.4112 9.04667 27.3145 9.09C27.2179 9.13 27.1145 9.15 27.0045 9.15C26.8979 9.15 26.7962 9.13 26.6995 9.09C26.6062 9.04667 26.5245 8.99 26.4545 8.92C26.3845 8.85 26.3279 8.76833 26.2845 8.675C26.2445 8.58167 26.2245 8.48167 26.2245 8.375C26.2245 8.265 26.2445 8.16167 26.2845 8.065C26.3279 7.96833 26.3845 7.885 26.4545 7.815C26.5245 7.745 26.6062 7.69 26.6995 7.65C26.7962 7.60667 26.8979 7.585 27.0045 7.585C27.1145 7.585 27.2179 7.60667 27.3145 7.65C27.4112 7.69 27.4945 7.745 27.5645 7.815C27.6379 7.885 27.6962 7.96833 27.7395 8.065C27.7829 8.16167 27.8045 8.265 27.8045 8.375ZM32.0644 10.87C32.031 10.9233 31.996 10.9617 31.9594 10.985C31.9227 11.005 31.876 11.015 31.8194 11.015C31.7594 11.015 31.6944 10.9983 31.6244 10.965C31.5577 10.9317 31.4794 10.895 31.3894 10.855C31.2994 10.8117 31.196 10.7733 31.0794 10.74C30.966 10.7067 30.831 10.69 30.6744 10.69C30.431 10.69 30.2394 10.7417 30.0994 10.845C29.9594 10.9483 29.8894 11.0833 29.8894 11.25C29.8894 11.36 29.9244 11.4533 29.9944 11.53C30.0677 11.6033 30.1627 11.6683 30.2794 11.725C30.3994 11.7817 30.5344 11.8333 30.6844 11.88C30.8344 11.9233 30.9877 11.9717 31.1444 12.025C31.301 12.0783 31.4544 12.14 31.6044 12.21C31.7544 12.2767 31.8877 12.3633 32.0044 12.47C32.1244 12.5733 32.2194 12.6983 32.2894 12.845C32.3627 12.9917 32.3994 13.1683 32.3994 13.375C32.3994 13.6217 32.3544 13.85 32.2644 14.06C32.1744 14.2667 32.0427 14.4467 31.8694 14.6C31.696 14.75 31.481 14.8683 31.2244 14.955C30.971 15.0383 30.6794 15.08 30.3494 15.08C30.1727 15.08 29.9994 15.0633 29.8294 15.03C29.6627 15 29.501 14.9567 29.3444 14.9C29.191 14.8433 29.0477 14.7767 28.9144 14.7C28.7844 14.6233 28.6694 14.54 28.5694 14.45L28.8544 13.98C28.891 13.9233 28.9344 13.88 28.9844 13.85C29.0344 13.82 29.0977 13.805 29.1744 13.805C29.251 13.805 29.3227 13.8267 29.3894 13.87C29.4594 13.9133 29.5394 13.96 29.6294 14.01C29.7194 14.06 29.8244 14.1067 29.9444 14.15C30.0677 14.1933 30.2227 14.215 30.4094 14.215C30.556 14.215 30.681 14.1983 30.7844 14.165C30.891 14.1283 30.9777 14.0817 31.0444 14.025C31.1144 13.9683 31.1644 13.9033 31.1944 13.83C31.2277 13.7533 31.2444 13.675 31.2444 13.595C31.2444 13.475 31.2077 13.3767 31.1344 13.3C31.0644 13.2233 30.9694 13.1567 30.8494 13.1C30.7327 13.0433 30.5977 12.9933 30.4444 12.95C30.2944 12.9033 30.1394 12.8533 29.9794 12.8C29.8227 12.7467 29.6677 12.685 29.5144 12.615C29.3644 12.5417 29.2294 12.45 29.1094 12.34C28.9927 12.23 28.8977 12.095 28.8244 11.935C28.7544 11.775 28.7194 11.5817 28.7194 11.355C28.7194 11.145 28.761 10.945 28.8444 10.755C28.9277 10.565 29.0494 10.4 29.2094 10.26C29.3727 10.1167 29.5744 10.0033 29.8144 9.92C30.0577 9.83333 30.3377 9.79 30.6544 9.79C31.0077 9.79 31.3294 9.84833 31.6194 9.965C31.9094 10.0817 32.151 10.235 32.3444 10.425L32.0644 10.87ZM34.6996 9.87V15H33.4646V9.87H34.6996ZM34.8846 8.375C34.8846 8.48167 34.8629 8.58167 34.8196 8.675C34.7763 8.76833 34.7179 8.85 34.6446 8.92C34.5746 8.99 34.4913 9.04667 34.3946 9.09C34.2979 9.13 34.1946 9.15 34.0846 9.15C33.9779 9.15 33.8763 9.13 33.7796 9.09C33.6863 9.04667 33.6046 8.99 33.5346 8.92C33.4646 8.85 33.4079 8.76833 33.3646 8.675C33.3246 8.58167 33.3046 8.48167 33.3046 8.375C33.3046 8.265 33.3246 8.16167 33.3646 8.065C33.4079 7.96833 33.4646 7.885 33.5346 7.815C33.6046 7.745 33.6863 7.69 33.7796 7.65C33.8763 7.60667 33.9779 7.585 34.0846 7.585C34.1946 7.585 34.2979 7.60667 34.3946 7.65C34.4913 7.69 34.5746 7.745 34.6446 7.815C34.7179 7.885 34.7763 7.96833 34.8196 8.065C34.8629 8.16167 34.8846 8.265 34.8846 8.375ZM11.0927 23.385C11.0927 23.915 11.0044 24.4067 10.8277 24.86C10.6511 25.31 10.4027 25.7 10.0827 26.03C9.76273 26.36 9.37773 26.6183 8.92773 26.805C8.47773 26.9883 7.9794 27.08 7.43273 27.08C6.88607 27.08 6.38607 26.9883 5.93273 26.805C5.48273 26.6183 5.09607 26.36 4.77273 26.03C4.45273 25.7 4.2044 25.31 4.02773 24.86C3.85107 24.4067 3.76273 23.915 3.76273 23.385C3.76273 22.855 3.85107 22.365 4.02773 21.915C4.2044 21.4617 4.45273 21.07 4.77273 20.74C5.09607 20.41 5.48273 20.1533 5.93273 19.97C6.38607 19.7833 6.88607 19.69 7.43273 19.69C7.9794 19.69 8.47773 19.7833 8.92773 19.97C9.37773 20.1567 9.76273 20.415 10.0827 20.745C10.4027 21.0717 10.6511 21.4617 10.8277 21.915C11.0044 22.365 11.0927 22.855 11.0927 23.385ZM9.71273 23.385C9.71273 22.9883 9.6594 22.6333 9.55273 22.32C9.4494 22.0033 9.2994 21.735 9.10273 21.515C8.90607 21.295 8.66607 21.1267 8.38273 21.01C8.10273 20.8933 7.78607 20.835 7.43273 20.835C7.0794 20.835 6.76107 20.8933 6.47773 21.01C6.1944 21.1267 5.95273 21.295 5.75273 21.515C5.55607 21.735 5.4044 22.0033 5.29773 22.32C5.19107 22.6333 5.13773 22.9883 5.13773 23.385C5.13773 23.7817 5.19107 24.1383 5.29773 24.455C5.4044 24.7683 5.55607 25.035 5.75273 25.255C5.95273 25.4717 6.1944 25.6383 6.47773 25.755C6.76107 25.8717 7.0794 25.93 7.43273 25.93C7.78607 25.93 8.10273 25.8717 8.38273 25.755C8.66607 25.6383 8.90607 25.4717 9.10273 25.255C9.2994 25.035 9.4494 24.7683 9.55273 24.455C9.6594 24.1383 9.71273 23.7817 9.71273 23.385ZM7.03273 18.665C7.03273 18.755 7.0144 18.84 6.97773 18.92C6.94107 19 6.89107 19.07 6.82773 19.13C6.7644 19.19 6.69107 19.2367 6.60773 19.27C6.5244 19.3033 6.43607 19.32 6.34273 19.32C6.25607 19.32 6.17273 19.3033 6.09273 19.27C6.01607 19.2367 5.94773 19.19 5.88773 19.13C5.82773 19.07 5.7794 19 5.74273 18.92C5.7094 18.84 5.69273 18.755 5.69273 18.665C5.69273 18.575 5.7094 18.49 5.74273 18.41C5.7794 18.3267 5.82773 18.255 5.88773 18.195C5.94773 18.1317 6.01607 18.0817 6.09273 18.045C6.17273 18.0083 6.25607 17.99 6.34273 17.99C6.43607 17.99 6.5244 18.0083 6.60773 18.045C6.69107 18.0817 6.7644 18.1317 6.82773 18.195C6.89107 18.255 6.94107 18.3267 6.97773 18.41C7.0144 18.49 7.03273 18.575 7.03273 18.665ZM9.19273 18.665C9.19273 18.755 9.1744 18.84 9.13773 18.92C9.1044 19 9.05773 19.07 8.99773 19.13C8.93773 19.19 8.86607 19.2367 8.78273 19.27C8.70273 19.3033 8.61607 19.32 8.52273 19.32C8.43273 19.32 8.34607 19.3033 8.26273 19.27C8.18273 19.2367 8.11107 19.19 8.04773 19.13C7.98773 19.07 7.9394 19 7.90273 18.92C7.8694 18.84 7.85273 18.755 7.85273 18.665C7.85273 18.575 7.8694 18.49 7.90273 18.41C7.9394 18.3267 7.98773 18.255 8.04773 18.195C8.11107 18.1317 8.18273 18.0817 8.26273 18.045C8.34607 18.0083 8.43273 17.99 8.52273 17.99C8.61607 17.99 8.70273 18.0083 8.78273 18.045C8.86607 18.0817 8.93773 18.1317 8.99773 18.195C9.05773 18.255 9.1044 18.3267 9.13773 18.41C9.1744 18.49 9.19273 18.575 9.19273 18.665ZM15.6958 27C15.5358 27 15.4308 26.925 15.3808 26.775L15.2808 26.28C15.1741 26.4 15.0624 26.5083 14.9458 26.605C14.8291 26.7017 14.7024 26.785 14.5658 26.855C14.4324 26.925 14.2874 26.9783 14.1308 27.015C13.9774 27.055 13.8108 27.075 13.6308 27.075C13.3508 27.075 13.0941 27.0167 12.8608 26.9C12.6274 26.7833 12.4258 26.615 12.2558 26.395C12.0891 26.1717 11.9591 25.8967 11.8658 25.57C11.7758 25.2433 11.7308 24.87 11.7308 24.45C11.7308 24.07 11.7824 23.7167 11.8858 23.39C11.9891 23.0633 12.1374 22.78 12.3308 22.54C12.5241 22.3 12.7558 22.1133 13.0258 21.98C13.2958 21.8433 13.5991 21.775 13.9358 21.775C14.2224 21.775 14.4674 21.8217 14.6708 21.915C14.8741 22.005 15.0558 22.1267 15.2158 22.28V19.57H16.4508V27H15.6958ZM14.0508 26.095C14.3074 26.095 14.5258 26.0417 14.7058 25.935C14.8858 25.8283 15.0558 25.6767 15.2158 25.48V23.18C15.0758 23.01 14.9224 22.89 14.7558 22.82C14.5924 22.75 14.4158 22.715 14.2258 22.715C14.0391 22.715 13.8691 22.75 13.7158 22.82C13.5658 22.89 13.4374 22.9967 13.3308 23.14C13.2274 23.28 13.1474 23.46 13.0908 23.68C13.0341 23.8967 13.0058 24.1533 13.0058 24.45C13.0058 24.75 13.0291 25.005 13.0758 25.215C13.1258 25.4217 13.1958 25.5917 13.2858 25.725C13.3758 25.855 13.4858 25.95 13.6158 26.01C13.7458 26.0667 13.8908 26.095 14.0508 26.095ZM19.9089 21.79C20.2322 21.79 20.5289 21.8417 20.7989 21.945C21.0722 22.0483 21.3072 22.2 21.5039 22.4C21.7006 22.5967 21.8539 22.84 21.9639 23.13C22.0739 23.4167 22.1289 23.745 22.1289 24.115C22.1289 24.2083 22.1239 24.2867 22.1139 24.35C22.1072 24.41 22.0922 24.4583 22.0689 24.495C22.0489 24.5283 22.0206 24.5533 21.9839 24.57C21.9472 24.5833 21.9006 24.59 21.8439 24.59H18.6739C18.7106 25.1167 18.8522 25.5033 19.0989 25.75C19.3456 25.9967 19.6722 26.12 20.0789 26.12C20.2789 26.12 20.4506 26.0967 20.5939 26.05C20.7406 26.0033 20.8672 25.9517 20.9739 25.895C21.0839 25.8383 21.1789 25.7867 21.2589 25.74C21.3422 25.6933 21.4222 25.67 21.4989 25.67C21.5489 25.67 21.5922 25.68 21.6289 25.7C21.6656 25.72 21.6972 25.7483 21.7239 25.785L22.0839 26.235C21.9472 26.395 21.7939 26.53 21.6239 26.64C21.4539 26.7467 21.2756 26.8333 21.0889 26.9C20.9056 26.9633 20.7172 27.0083 20.5239 27.035C20.3339 27.0617 20.1489 27.075 19.9689 27.075C19.6122 27.075 19.2806 27.0167 18.9739 26.9C18.6672 26.78 18.4006 26.605 18.1739 26.375C17.9472 26.1417 17.7689 25.855 17.6389 25.515C17.5089 25.1717 17.4439 24.775 17.4439 24.325C17.4439 23.975 17.5006 23.6467 17.6139 23.34C17.7272 23.03 17.8889 22.7617 18.0989 22.535C18.3122 22.305 18.5706 22.1233 18.8739 21.99C19.1806 21.8567 19.5256 21.79 19.9089 21.79ZM19.9339 22.675C19.5739 22.675 19.2922 22.7767 19.0889 22.98C18.8856 23.1833 18.7556 23.4717 18.6989 23.845H21.0189C21.0189 23.685 20.9972 23.535 20.9539 23.395C20.9106 23.2517 20.8439 23.1267 20.7539 23.02C20.6639 22.9133 20.5506 22.83 20.4139 22.77C20.2772 22.7067 20.1172 22.675 19.9339 22.675ZM23.1307 27V21.87H23.8857C24.0457 21.87 24.1507 21.945 24.2007 22.095L24.2857 22.5C24.389 22.3933 24.4974 22.2967 24.6107 22.21C24.7274 22.1233 24.849 22.0483 24.9757 21.985C25.1057 21.9217 25.244 21.8733 25.3907 21.84C25.5374 21.8067 25.6974 21.79 25.8707 21.79C26.1507 21.79 26.399 21.8383 26.6157 21.935C26.8324 22.0283 27.0124 22.1617 27.1557 22.335C27.3024 22.505 27.4124 22.71 27.4857 22.95C27.5624 23.1867 27.6007 23.4483 27.6007 23.735V27H26.3657V23.735C26.3657 23.4217 26.2924 23.18 26.1457 23.01C26.0024 22.8367 25.7857 22.75 25.4957 22.75C25.2824 22.75 25.0824 22.7983 24.8957 22.895C24.709 22.9917 24.5324 23.1233 24.3657 23.29V27H23.1307ZM32.4243 27C32.2643 27 32.1593 26.925 32.1093 26.775L32.0093 26.28C31.9026 26.4 31.791 26.5083 31.6743 26.605C31.5576 26.7017 31.431 26.785 31.2943 26.855C31.161 26.925 31.016 26.9783 30.8593 27.015C30.706 27.055 30.5393 27.075 30.3593 27.075C30.0793 27.075 29.8226 27.0167 29.5893 26.9C29.356 26.7833 29.1543 26.615 28.9843 26.395C28.8176 26.1717 28.6876 25.8967 28.5943 25.57C28.5043 25.2433 28.4593 24.87 28.4593 24.45C28.4593 24.07 28.511 23.7167 28.6143 23.39C28.7176 23.0633 28.866 22.78 29.0593 22.54C29.2526 22.3 29.4843 22.1133 29.7543 21.98C30.0243 21.8433 30.3276 21.775 30.6643 21.775C30.951 21.775 31.196 21.8217 31.3993 21.915C31.6026 22.005 31.7843 22.1267 31.9443 22.28V19.57H33.1793V27H32.4243ZM30.7793 26.095C31.036 26.095 31.2543 26.0417 31.4343 25.935C31.6143 25.8283 31.7843 25.6767 31.9443 25.48V23.18C31.8043 23.01 31.651 22.89 31.4843 22.82C31.321 22.75 31.1443 22.715 30.9543 22.715C30.7676 22.715 30.5976 22.75 30.4443 22.82C30.2943 22.89 30.166 22.9967 30.0593 23.14C29.956 23.28 29.876 23.46 29.8193 23.68C29.7626 23.8967 29.7343 24.1533 29.7343 24.45C29.7343 24.75 29.7576 25.005 29.8043 25.215C29.8543 25.4217 29.9243 25.5917 30.0143 25.725C30.1043 25.855 30.2143 25.95 30.3443 26.01C30.4743 26.0667 30.6193 26.095 30.7793 26.095ZM35.8324 21.87V27H34.5974V21.87H35.8324ZM36.0174 20.375C36.0174 20.4817 35.9958 20.5817 35.9524 20.675C35.9091 20.7683 35.8508 20.85 35.7774 20.92C35.7074 20.99 35.6241 21.0467 35.5274 21.09C35.4308 21.13 35.3274 21.15 35.2174 21.15C35.1108 21.15 35.0091 21.13 34.9124 21.09C34.8191 21.0467 34.7374 20.99 34.6674 20.92C34.5974 20.85 34.5408 20.7683 34.4974 20.675C34.4574 20.5817 34.4374 20.4817 34.4374 20.375C34.4374 20.265 34.4574 20.1617 34.4974 20.065C34.5408 19.9683 34.5974 19.885 34.6674 19.815C34.7374 19.745 34.8191 19.69 34.9124 19.65C35.0091 19.6067 35.1108 19.585 35.2174 19.585C35.3274 19.585 35.4308 19.6067 35.5274 19.65C35.6241 19.69 35.7074 19.745 35.7774 19.815C35.8508 19.885 35.9091 19.9683 35.9524 20.065C35.9958 20.1617 36.0174 20.265 36.0174 20.375Z" fill="white"/>
</svg>
